<?xml version="1.0" encoding="utf-8"?>
<!-- Generator: Adobe Illustrator 17.0.0, SVG Export Plug-In . SVG Version: 6.00 Build 0)  -->
<!DOCTYPE svg PUBLIC "-//W3C//DTD SVG 1.1//EN" "http://www.w3.org/Graphics/SVG/1.1/DTD/svg11.dtd">
<svg version="1.1" id="Capa_1" xmlns="http://www.w3.org/2000/svg" xmlns:xlink="http://www.w3.org/1999/xlink" x="0px" y="0px"
	 width="160px" height="60px" viewBox="0 0 160 60" enable-background="new 0 0 160 60" xml:space="preserve">
<g>
	<path fill="#FFFFFF" d="M47.322,41.842l-1.366-3.714c0,0-2.22,2.476-5.549,2.476c-2.946,0-5.038-2.562-5.038-6.66
		c0-5.251,2.647-7.129,5.251-7.129c3.756,0,4.952,2.433,5.977,5.55l1.366,4.269c1.366,4.141,3.927,7.47,11.312,7.47
		c5.294,0,8.88-1.622,8.88-5.891c0-3.458-1.964-5.251-5.635-6.105l-2.732-0.598c-1.878-0.427-2.433-1.195-2.433-2.476
		c0-1.452,1.152-2.305,3.031-2.305c2.049,0,3.159,0.768,3.33,2.604l4.269-0.512c-0.342-3.842-2.988-5.422-7.343-5.422
		c-3.842,0-7.599,1.452-7.599,6.105c0,2.903,1.409,4.739,4.952,5.593l2.903,0.683c2.177,0.512,2.903,1.409,2.903,2.647
		c0,1.579-1.537,2.22-4.44,2.22c-4.312,0-6.104-2.263-7.129-5.379l-1.409-4.269c-1.793-5.55-4.653-7.599-10.331-7.599
		c-6.275,0-9.605,3.97-9.605,10.715c0,6.489,3.33,9.989,9.307,9.989C45.016,44.105,47.322,41.842,47.322,41.842L47.322,41.842z"/>
	<path fill="#FFFFFF" d="M29.053,39.835c-0.427,0.128-0.854,0.214-1.409,0.214c-1.025,0-1.75-0.469-1.75-1.708V15.074h-4.483v24.335
		c0,3.202,2.22,4.526,4.824,4.526c0.854,0,1.665-0.129,2.69-0.384L29.053,39.835L29.053,39.835z"/>
	<path fill="#FFFFFF" d="M83.054,39.153c-1.11,0.769-2.049,1.153-3.33,1.153c-1.622,0-2.519-0.854-2.519-2.946v-9.99h5.892v-3.501
		h-5.849V19.13l-4.525,0.555v4.184h-2.861v3.501h2.861v10.929c0,3.928,2.263,5.806,5.934,5.806c2.007,0,3.8-0.384,5.208-1.195
		L83.054,39.153L83.054,39.153z"/>
	<path fill="#FFFFFF" d="M86.948,40.689c0,1.751,1.366,3.16,3.116,3.16c1.836,0,3.202-1.409,3.202-3.16
		c0-1.793-1.366-3.159-3.202-3.159C88.314,37.531,86.948,38.896,86.948,40.689L86.948,40.689z"/>
	<path fill="#FFFFFF" d="M97.907,27.37v16.223h4.482V27.37h5.038v-3.501h-5.038v-1.793c0-2.689,1.153-3.543,3.031-3.543
		c1.323,0,2.22,0.299,3.245,0.854l0.725-3.757c-1.195-0.555-2.604-0.854-4.312-0.854c-3.757,0-7.172,1.793-7.172,7.129v1.964h-2.861
		v3.501H97.907L97.907,27.37z"/>
	<path fill="#FFFFFF" d="M125.289,27.754c-0.513-3.202-2.604-4.355-5.337-4.355c-2.732,0-5.08,1.238-6.105,4.269l-0.555-3.799
		h-3.629v19.724h4.483V32.45c0-3.8,1.964-5.252,4.056-5.252c2.177,0,3.074,1.451,3.074,3.8v12.594h4.44V32.407
		c0-3.757,2.007-5.209,4.099-5.209c2.135,0,3.031,1.451,3.031,3.8v12.594h4.483V29.419c0-4.226-2.476-6.02-5.764-6.02
		C128.79,23.399,126.313,24.637,125.289,27.754L125.289,27.754z"/>
</g>
</svg>
